<?xml version="1.0" standalone="no"?>
<!DOCTYPE svg PUBLIC "-//W3C//DTD SVG 20010904//EN"
 "http://www.w3.org/TR/2001/REC-SVG-20010904/DTD/svg10.dtd">
<svg version="1.0" xmlns="http://www.w3.org/2000/svg"
 width="700.000000pt" height="700.000000pt" viewBox="0 0 700.000000 700.000000"
 preserveAspectRatio="xMidYMid meet">
<metadata>
Created by potrace 1.11, written by Peter Selinger 2001-2013
</metadata>
<g transform="translate(0.000000,700.000000) scale(0.100000,-0.100000)"
fill="#000000" stroke="none">
<path d="M3150 6402 c-231 -30 -362 -270 -261 -477 48 -98 140 -166 241 -179
25 -3 106 -8 180 -11 74 -3 146 -7 160 -9 14 -3 48 -7 75 -11 282 -34 624
-147 868 -286 40 -23 87 -50 106 -61 28 -16 96 -62 205 -138 12 -8 30 -23 41
-32 11 -9 40 -33 65 -53 119 -97 280 -266 384 -405 179 -237 302 -478 380
-748 68 -232 91 -392 90 -627 0 -135 -7 -255 -18 -310 -2 -11 -7 -40 -11 -65
-11 -65 -11 -67 -35 -160 -138 -539 -471 -1006 -930 -1302 -74 -48 -236 -135
-295 -159 -11 -4 -38 -15 -60 -24 -117 -48 -335 -103 -475 -120 -30 -4 -113
-8 -185 -10 -633 -13 -1246 310 -1588 836 -109 168 -203 391 -231 549 -10 59
-19 106 -23 125 -3 11 -6 94 -8 185 -3 199 16 326 74 500 40 118 107 263 155
333 14 21 26 40 26 42 0 16 109 146 194 231 210 211 480 352 741 389 28 4 59
9 70 11 32 6 216 5 265 -1 275 -36 519 -155 710 -345 283 -281 384 -666 263
-1004 -75 -210 -217 -378 -398 -469 -107 -54 -171 -69 -325 -71 -178 -3 -244
-26 -318 -110 -42 -48 -59 -83 -75 -153 -13 -60 -14 -74 -2 -133 26 -139 153
-251 302 -265 77 -7 208 -7 258 0 137 19 189 30 265 55 333 108 613 341 799
663 76 132 116 235 172 437 42 158 44 451 3 664 -103 535 -511 1017 -1060
1251 -117 50 -254 94 -341 110 -16 2 -53 9 -83 15 -185 35 -459 31 -670 -10
-544 -105 -1013 -426 -1333 -912 -58 -88 -159 -281 -200 -383 -40 -98 -99
-291 -112 -364 -3 -19 -7 -37 -9 -40 -2 -3 -7 -33 -11 -66 -3 -32 -8 -62 -10
-65 -6 -9 -18 -224 -18 -305 1 -83 11 -239 18 -265 2 -8 7 -40 10 -70 3 -30
10 -71 15 -90 5 -19 11 -47 14 -61 12 -69 71 -258 114 -364 27 -68 147 -297
182 -350 42 -63 152 -218 160 -225 3 -3 32 -36 65 -75 128 -148 215 -226 460
-413 6 -4 28 -19 50 -32 22 -13 42 -28 43 -32 2 -4 8 -8 13 -8 5 0 26 -11 47
-23 183 -116 459 -228 707 -287 122 -29 145 -34 225 -45 25 -3 61 -8 80 -11
63 -10 453 -13 530 -4 136 16 164 21 265 42 957 196 1748 925 2061 1898 29 90
80 289 88 345 4 22 9 54 11 70 3 17 7 43 10 59 27 171 27 686 0 786 -2 8 -6
33 -10 55 -23 157 -86 398 -150 572 -62 168 -197 430 -308 595 -56 84 -110
162 -119 173 -135 164 -184 218 -284 319 -237 237 -514 436 -825 591 -255 128
-557 231 -824 280 -49 10 -97 18 -105 20 -9 2 -43 6 -75 10 -33 4 -71 9 -85
11 -60 9 -348 21 -390 16z"/>
</g>
</svg>
