<?xml version="1.0" standalone="no"?>
<!DOCTYPE svg PUBLIC "-//W3C//DTD SVG 20010904//EN"
 "http://www.w3.org/TR/2001/REC-SVG-20010904/DTD/svg10.dtd">
<svg version="1.0" xmlns="http://www.w3.org/2000/svg"
 width="700.000000pt" height="700.000000pt" viewBox="0 0 700.000000 700.000000"
 preserveAspectRatio="xMidYMid meet">
<metadata>
Created by potrace 1.11, written by Peter Selinger 2001-2013
</metadata>
<g transform="translate(0.000000,700.000000) scale(0.100000,-0.100000)"
fill="#000000" stroke="none">
<path d="M3440 6763 c-30 -7 -77 -20 -105 -28 -65 -19 -465 -126 -485 -130
-17 -3 -330 -88 -390 -105 -19 -6 -87 -23 -150 -40 -63 -16 -128 -34 -145 -39
-16 -5 -86 -24 -155 -42 -147 -37 -152 -39 -170 -76 -8 -15 -19 -35 -26 -43
-6 -8 -25 -39 -40 -68 -16 -29 -34 -61 -39 -70 -6 -9 -28 -48 -50 -87 -21 -38
-63 -110 -92 -158 -29 -48 -53 -89 -53 -92 0 -2 -19 -36 -43 -77 -24 -40 -55
-93 -69 -118 -14 -25 -49 -85 -78 -135 -29 -49 -61 -105 -71 -123 -64 -112
-106 -185 -189 -327 -51 -88 -100 -173 -110 -190 -33 -59 -255 -443 -363 -630
-61 -104 -120 -206 -131 -227 -33 -57 -139 -241 -153 -263 -7 -11 -15 -27 -20
-35 -4 -8 -20 -37 -36 -65 -62 -104 -69 -72 70 -313 69 -120 135 -233 145
-252 71 -124 255 -443 278 -480 15 -25 39 -65 52 -90 22 -40 114 -200 157
-272 16 -26 175 -303 197 -343 6 -11 35 -60 64 -110 29 -49 61 -106 72 -125
11 -19 29 -50 40 -68 11 -18 30 -50 41 -71 34 -60 117 -203 136 -236 33 -53
275 -474 299 -518 13 -23 27 -45 32 -50 6 -4 8 -4 6 -1 -3 3 2 29 11 57 8 28
16 58 18 66 3 16 48 182 127 471 22 80 41 152 43 160 1 8 28 110 60 225 55
206 61 227 69 263 2 9 21 76 41 149 20 72 38 140 40 150 3 10 20 77 39 148 20
72 49 182 66 245 72 269 220 819 231 860 7 25 13 50 14 55 2 6 30 111 63 235
34 124 86 320 117 435 31 116 68 253 82 305 14 52 35 133 48 180 12 47 59 222
105 390 45 168 99 370 120 450 38 145 139 519 205 765 101 372 134 499 132
500 -1 1 -27 -4 -57 -12z"/>
<path d="M3510 6766 c0 -3 55 -100 348 -606 52 -91 104 -181 115 -200 10 -19
68 -118 127 -220 59 -102 252 -437 430 -745 178 -308 348 -603 378 -655 30
-52 63 -110 74 -128 20 -37 193 -338 208 -362 5 -8 69 -118 142 -245 73 -126
138 -237 143 -247 6 -9 17 -29 26 -45 36 -64 59 -104 83 -142 15 -22 26 -42
26 -45 0 -2 45 -81 100 -176 55 -94 100 -173 100 -174 0 -2 24 -44 54 -93 29
-49 64 -109 78 -133 14 -25 76 -133 138 -240 62 -107 122 -211 133 -230 10
-19 42 -75 71 -123 l51 -88 3 1632 c1 898 -1 1636 -5 1640 -7 7 -585 342 -678
393 -22 13 -99 57 -172 99 -72 42 -147 85 -165 95 -18 11 -260 150 -537 311
-277 160 -507 291 -512 291 -5 0 -9 5 -9 10 0 6 -4 10 -9 10 -5 0 -164 89
-353 198 -378 219 -388 225 -388 218z"/>
<path d="M6050 1783 c-151 -40 -342 -91 -425 -113 -82 -22 -172 -47 -200 -55
-27 -7 -122 -33 -210 -55 -88 -23 -173 -46 -190 -51 -29 -9 -466 -127 -495
-134 -8 -1 -58 -14 -110 -29 -93 -25 -858 -230 -1220 -326 -102 -28 -210 -57
-240 -65 -30 -8 -156 -42 -280 -75 -124 -33 -281 -75 -350 -94 -69 -18 -199
-53 -290 -77 l-165 -44 1631 -3 1632 -2 596 596 c328 328 596 597 594 599 -2
1 -127 -31 -278 -72z"/>
</g>
</svg>
